<svg width="128" height="128" viewBox="0 0 128 128" fill="none" xmlns="http://www.w3.org/2000/svg">
    <rect width="128" height="128" rx="24" fill="#1e66f5"/>
    <path d="M63.939 43.409L52.438 84.688H42.469L34.846 55.227L26.785 84.688L16.939 84.75L5.88086 43.409H14.7469L22.0619 75.409L30.4939 43.409H39.7469L47.6219 75.163L55.0619 43.409H63.939ZM89.6247 51.409C92.4122 51.409 94.3872 52.409 95.5497 54.409C96.7122 56.347 97.2935 59.224 97.2935 63.041V84.688H88.9247V64.388C88.9247 61.972 88.4622 60.224 87.5372 59.143C86.6122 58 85.2247 57.429 83.3747 57.429C81.4372 57.429 79.9872 58 79.0247 59.143C78.0997 60.224 77.6372 61.972 77.6372 64.388V84.688H69.2685V40.84H77.6372V55.906C78.9372 54.091 80.6372 52.718 82.7372 51.786C84.8372 50.854 87.1247 51.409 89.6247 51.409ZM115.652 85.241C114.427 85.241 113.39 84.875 112.54 84.143C111.74 83.36 111.34 82.391 111.34 81.235C111.34 80.079 111.74 79.143 112.54 78.429C113.39 77.664 114.427 77.281 115.652 77.281C116.84 77.281 117.84 77.664 118.652 78.429C119.465 79.143 119.871 80.079 119.871 81.235C119.871 82.391 119.465 83.36 118.652 84.143C117.84 84.875 116.84 85.241 115.652 85.241Z" fill="white"/>
</svg>
