<svg class="logo-123reg" viewBox="0 0 460 100" xmlns="http://www.w3.org/2000/svg"><path d="M94.3 0c3.2 0 5.7 2.5 5.7 5.5h0v89c0 3-2.6 5.5-5.7 5.5h0H5.7C2.6 100 0 97.5 0 94.5h0v-89C0 2.5 2.6 0 5.7 0h0 88.6zM58.4 20h-16c-.8 0-1.4.7-1.4 1.5v7.4c0 .8.6 1.5 1.4 1.5h4.7c.8 0 1.4.7 1.4 1.5V78c0 .8.6 1.5 1.4 1.5h8.4c.8 0 1.4-.7 1.4-1.5V21.5c.1-.8-.5-1.5-1.3-1.5z" fill="#e1144d"></path><path d="M199.3 0c3.2 0 5.7 2.5 5.7 5.5h0v89c0 3-2.6 5.5-5.7 5.5h0-88.5c-3.2 0-5.7-2.5-5.7-5.5h0v-89c0-3 2.6-5.5 5.7-5.5h0 88.5zm-44.8 20c-11.3 0-19.4 7-20.3 17.2-.1.8.6 1.6 1.4 1.6h8.8c.7 0 1.3-.5 1.4-1.2.8-5.3 5-7.2 8.7-7.2 5.2 0 8.8 3.5 8.8 8.4 0 3.9-2.8 7.1-7 10.8l-21.8 18.6c-.3.3-.5.7-.5 1.1v8.5c0 .8.6 1.4 1.4 1.4h39.2c.8 0 1.4-.6 1.4-1.4v-7.5c0-.8-.6-1.4-1.4-1.4H153c-1.3 0-1.9-1.6-.9-2.5l10.6-9.5c7.1-6.3 12.1-11.3 12.1-18.3 0-11-8.3-18.6-20.3-18.6z" fill="#1990d0"></path><path d="M304.3 0c3.2 0 5.7 2.5 5.7 5.5h0v89c0 3-2.6 5.5-5.7 5.5h0-88.5c-3.2 0-5.7-2.5-5.7-5.5h0v-89c0-3 2.6-5.5 5.7-5.5h0 88.5zm-44.4 20c-10.1 0-18.1 6.3-18.3 16.8h0v.4c0 .8.6 1.4 1.4 1.4h0 8.1c.8 0 1.4-.6 1.4-1.4h0v-.4c.3-4.5 3.3-7.1 7.4-7.1 4 0 7.3 2.6 7.3 7.5 0 4.1-2.3 7.5-7.6 7.5h0-.2c-.8 0-1.4.6-1.4 1.4h0v6.5c0 .8.6 1.4 1.4 1.4h0 .2c5.4 0 8.4 3.2 8.4 8.1 0 5.3-3.4 8.2-8.1 8.2-3.9 0-7.4-2-8-6.5-.1-.7-.7-1.2-1.4-1.2h0-8.1c-.8 0-1.5.7-1.4 1.5.9 11.2 9.7 15.8 19 15.8 10.3 0 19-5.9 19-17.6 0-6.1-2.5-9.9-5.9-12.3a1.4 1.4 0 0 1 0-2.3c3-2.2 5-5.6 5-10.9.1-9.8-7.6-16.8-18.2-16.8z" fill="#7eb828"></path><path d="M352.6 46.1h-10.9V31.8c0-.8.6-1.4 1.4-1.4h9.3c2.5 0 4.5.7 6 2.1 1.2 1.1 2.3 2.6 2.6 4.4.1.5.1.9.1 1.4-.1 4.5-3.4 7.8-8.5 7.8h0zm9.9 9.1c-.4-.7-.1-1.6.7-1.9 5.2-2.4 9.4-7.4 9.4-15v-.5h.1c0-5-1.7-9.2-5.1-12.6s-7.9-5.1-13.6-5.1h-5.8-15.7-.8c-.8 0-1.4.6-1.4 1.4v25.9.1V78c0 .8.6 1.4 1.4 1.4h8.7c.8 0 1.4-.6 1.4-1.4V57.1c0-.8.6-1.4 1.4-1.4h6c.5 0 1 .3 1.3.8l10.8 22.1c.2.5.7.8 1.3.8h10.2c1.1 0 1.7-1.1 1.3-2.1l-11.6-22.1zm41.4-1.1h-13.3c-.9 0-1.5-.8-1.4-1.6.1-1.1.4-1.9.9-3 1.2-2.6 3.5-4.5 7.2-4.5 3.6 0 6 1.9 7.2 4.5.5 1.1.7 2 .9 3 0 .8-.7 1.6-1.5 1.6m-6.7-18c-11.1 0-18.7 7.9-18.7 22 0 17.4 9.7 22 19.9 22 7.1 0 11.2-2 15.3-5.7.6-.6.6-1.5 0-2.1l-4.5-4.4c-.5-.5-1.4-.5-1.9 0-2.3 2.1-4.6 3.1-8.8 3.1-5.4 0-8.7-3.3-9.3-8-.1-.8.6-1.6 1.4-1.6h24c.8 0 1.4-.6 1.4-1.4v-3.4c0-11.8-6.8-20.5-18.8-20.5m43.5 31.6c-6.6 0-7.3-5-7.3-11s.7-10.7 7.3-10.7 7.4 4.7 7.4 10.7-.8 11-7.4 11m17.2-30.3h-8.5c-.5 0-1 .4-1 1v.1c0 .8-1 1.3-1.6.7-2.6-2.3-5.4-3.2-9.4-3.2-4.4 0-8.3 1.5-10.8 4-4.2 4.2-4.6 9-4.6 16.8 0 7.9.3 12.9 4.6 17.1 2.5 2.5 6.3 4 10.7 4s7.8-1.2 10.7-4.5v2.4c0 4.6-2.3 9.4-9.1 9.4h-9.2c-.8 0-1.4.6-1.4 1.4v6.6c0 .8.6 1.4 1.4 1.4h9.2c13.6 0 20.3-7.9 20.3-18.7V38.8c.1-.8-.5-1.4-1.3-1.4" fill="#0893d1"></path><path d="M58.4 20h-16c-.8 0-1.4.7-1.4 1.5v7.4c0 .8.6 1.5 1.4 1.5h4.7c.8 0 1.4.7 1.4 1.5V78c0 .8.6 1.5 1.4 1.5h8.4c.8 0 1.4-.7 1.4-1.5V21.5c.1-.8-.5-1.5-1.3-1.5zm96.1 0c-11.3 0-19.4 7-20.3 17.2-.1.8.6 1.6 1.4 1.6h8.8c.7 0 1.3-.5 1.4-1.2.8-5.3 5-7.2 8.7-7.2 5.2 0 8.8 3.5 8.8 8.4 0 3.9-2.8 7.1-7 10.8l-21.8 18.6c-.3.3-.5.7-.5 1.1v8.5c0 .8.6 1.4 1.4 1.4h39.2c.8 0 1.4-.6 1.4-1.4v-7.5c0-.8-.6-1.4-1.4-1.4H153c-1.3 0-1.9-1.6-.9-2.5l10.6-9.5c7.1-6.3 12.1-11.3 12.1-18.3 0-11-8.3-18.6-20.3-18.6zm105.4 0c-10.1 0-18.1 6.3-18.3 16.8h0v.4c0 .8.6 1.4 1.4 1.4h0 8.1c.8 0 1.4-.6 1.4-1.4h0v-.4c.3-4.5 3.3-7.1 7.4-7.1 4 0 7.3 2.6 7.3 7.5 0 4.1-2.3 7.5-7.6 7.5h0-.2c-.8 0-1.4.6-1.4 1.4h0v6.5c0 .8.6 1.4 1.4 1.4h0 .2c5.4 0 8.4 3.2 8.4 8.1 0 5.3-3.4 8.2-8.1 8.2-3.9 0-7.4-2-8-6.5-.1-.7-.7-1.2-1.4-1.2h0-8.1c-.8 0-1.5.7-1.4 1.5.9 11.2 9.7 15.8 19 15.8 10.3 0 19-5.9 19-17.6 0-6.1-2.5-9.9-5.9-12.3a1.4 1.4 0 0 1 0-2.3c3-2.2 5-5.6 5-10.9.1-9.8-7.6-16.8-18.2-16.8z" fill="#fff"></path></svg>