<svg version="1.1" id="Layer_1" xmlns="http://www.w3.org/2000/svg" xmlns:xlink="http://www.w3.org/1999/xlink" x="0px" y="0px" viewBox="0 0 447.8 53" style="enable-background:new 0 0 447.8 53;" xml:space="preserve">
 <style type="text/css">
  .st0{fill:#8654c2;}
 </style>
 <g id="Layer_2_1_">
  <g id="Artwork">
   <path class="st0" d="M33.4,3.9h17.3v0.7l-2.8,2.8c-0.7,0.6-1,1.4-1,2.3V53h-0.7L13.5,23v22.4c-0.1,0.9,0.3,1.7,1,2.3l2.8,2.8v0.7    H0v-0.7l2.8-2.8c0.7-0.6,1-1.4,1-2.3V1.7h0.6L37,31.6v-22c0.1-0.9-0.3-1.7-0.9-2.3l-2.8-2.8V3.9z M98.7,37.7    c0,9.2-6.5,13.4-17.1,13.4H54.4v-0.7l2.8-2.8c0.7-0.6,1.1-1.4,1-2.3V9.6c0.1-0.9-0.3-1.7-1-2.3l-2.8-2.8V3.9h27.5    c9.9,0,14.9,4.7,14.9,12.8c-0.2,4.8-3.6,8.8-8.3,9.7l0,0c6.4,1.1,10.4,4.9,10.4,11.3 M68.8,22.6h11.8c3.6,0,5.6-1.7,5.6-5    s-1.6-5.1-5.6-5.1H68.8V22.6z M88,36.5c0-4.2-2.5-5.8-7.6-5.8H68.8v11.6h11.6C84.7,42.2,88,40.8,88,36.5 M127.8,43.1    c-8,0-13.5-6.2-13.5-15.4c0-9.8,6.1-15.6,13.9-15.6c4.4-0.4,8.6,2.2,10.1,6.4l0.7,0.2l4-16.1l-0.7-0.3c-1.3,1.1-2.9,1.7-4.6,1.7    c-2.3,0-5.9-0.9-10.2-0.9c-13.9,0-24.7,9.3-24.7,24.6s10.7,24.5,24.5,24.5c6.7,0.2,13.1-2.3,17.8-7.1l-6.2-7.5    C136.4,41.1,132.2,43.2,127.8,43.1 M177.3,4.6l2.8,2.8c0.7,0.6,1,1.4,1,2.3v23.3c0,6.8-3.4,10.1-9.4,10.1s-9.5-3.2-9.5-10.1V9.6    c0-0.9,0.3-1.7,1-2.3l2.8-2.8V3.9h-18.1v0.7l2.8,2.8c0.7,0.6,1.1,1.4,1,2.3v23c0,13.1,8.3,19.5,20,19.5c11.7,0,20.1-6.4,20.1-19.5    v-23c-0.1-0.9,0.3-1.7,1-2.3l2.8-2.8V3.9h-18.2V4.6z M233.5,44.6V31c0-8.1-4-12.8-11-12.8c-4.5-0.1-8.7,2.4-10.7,6.4v-5.8h-13.5    v0.7l2.8,2.8c0.9,0.9,1,1.4,1,3.1v19.5c0,1.7,0,2.3-1,3.1l-2.8,2.8v0.7h17.5v-0.7l-2.8-2.8c-0.9-0.9-1-1.4-1-3.1V33.7    c0-3.8,1.9-6.9,6.1-6.9c3.6,0,5.3,2.6,5.3,6.4v18h13.7v-0.7l-2.8-2.8c-0.9-0.9-1-1.4-1-3.1 M254.5,44.6V18.7h-13.6v0.7l2.8,2.8    c0.9,0.9,1,1.4,1,3.1v19.5c0,1.7,0,2.3-1,3.1l-2.8,2.8v0.7h17.6v-0.7l-2.8-2.8c-0.9-0.9-1-1.4-1-3.1 M249.6,13.9    c3.2,0,5.8-2.5,5.8-5.7c0-0.1,0-0.1,0-0.2c0.1-3.2-2.5-5.8-5.6-5.8c-0.1,0-0.1,0-0.2,0c-3.2-0.3-6.1,2.1-6.4,5.3s2.1,6.1,5.3,6.4    C248.8,13.9,249.2,13.9,249.6,13.9 M295.7,18.7h-12.5l-5.8,15.7h-0.2l-6.6-15.6h-12.3v0.7c2.2,1.7,3.9,3.9,5.1,6.5l13.2,26.7h0.7    l13.1-26.7c1.1-2.6,2.8-4.8,5.1-6.5V18.7z M327.6,34.9c0,1.1,0,2.2,0,2.8h-22.4c0.7,3.8,4.3,6.5,8.1,6.1c2.6,0.1,5.1-0.9,6.9-2.8    l5.6,6.6c-3.8,3-8.5,4.5-13.3,4.3c-10.7,0-17.5-6.5-17.5-16.7c-0.6-9,6.2-16.7,15.2-17.3c0.7,0,1.4,0,2.1,0    c10.8,0,15.5,7.1,15.5,16.8 M317.6,31.7c0.2-3.2-2.2-6-5.4-6.2c-0.2,0-0.4,0-0.5,0c-3.5-0.1-6.5,2.7-6.6,6.3H317.6z M344.9,25    v-6.3h-13.5v0.7l2.8,2.8c0.9,0.9,1,1.4,1,3.1v19.5c0,1.7,0,2.3-1,3.1l-2.8,2.8v0.7h17.5v-0.7l-2.8-2.8c-0.8-0.9-1-1.4-1-3.1v-10    c0-4.9,2.4-7.5,6.2-7.5c1.8,0,3.5,0.7,4.8,1.9l2.6-10.1c-1.3-0.6-2.7-1-4.2-0.9c-4.4,0.1-8.3,3-9.7,7.2 M379.6,31.3    c-4.4-0.7-7.8-0.7-7.8-3.4c0-1.5,1.3-2.5,4.2-2.5c3.9,0,7.6,1.3,9,4.3l0.7,0.2l3.1-12.4l-0.7-0.3c-1.2,1.1-2.8,1.7-4.4,1.7    c-2.2,0-4.2-0.9-8.3-0.9c-7.1,0-13.9,2.6-13.9,10.6c0,6.3,5,8.7,9.8,9.5c4.8,0.8,8.1,0.9,8.1,3.6c0,1.6-1.4,2.8-4.3,2.8    c-3.9,0-7.7-1.3-10.8-3.7l-4.6,6.9c4.3,3,9.5,4.6,14.7,4.4c9.3,0,15.1-4.1,15.1-11.3c0-6.2-5.3-8.6-10.1-9.5 M424.8,47.8l2.8,2.8    v0.7h-13.5v-4.5c-2.1,3.5-6,5.6-10.1,5.3c-5.2,0.4-9.8-3.5-10.3-8.8c0-0.2,0-0.5,0-0.7c0-7.2,4.9-10.5,15.8-10.8    c3.5,0,4.4-0.8,4.4-2.8s-1.6-3.3-5.8-3.3c-3,0-5.9,1.3-7.9,3.5l-5.3-6.2c3.9-3.5,9.1-5.3,14.3-5c10.3,0,14.7,4.3,14.7,12.6v13.9    c0,1.7,0.1,2.3,1,3.1 M414,36.6c-1.4,0.3-2.8,0.5-4.2,0.5c-4.5,0.3-6,1.9-6,4.1c-0.1,1.9,1.4,3.5,3.3,3.6c0.1,0,0.3,0,0.4,0    c3.3,0.3,6.2-2,6.6-5.3c0-0.2,0-0.4,0-0.6L414,36.6z M445.1,47.7c-0.9-0.9-1-1.4-1-3.1V0h-13.7v0.7l2.8,2.8c0.9,0.9,1,1.4,1,3.1    v38.1c0,1.7-0.1,2.3-1,3.1l-2.8,2.8v0.7h17.4v-0.7L445.1,47.7z" fill="#000000">
   </path>
  </g>
 </g>
</svg>